<mxfile host="app.diagrams.net" modified="2022-04-09T20:05:14.506Z" agent="5.0 (Macintosh)" etag="Og36uo70LwUCV3VpfQOq" version="17.4.0" type="github">
  <diagram id="X2qfpmrSXKSWghEvdcyf" name="Page-1">
    <mxGraphModel dx="1186" dy="689" grid="1" gridSize="10" guides="1" tooltips="1" connect="1" arrows="1" fold="1" page="1" pageScale="1" pageWidth="827" pageHeight="1169" math="0" shadow="0">
      <root>
        <mxCell id="0" />
        <mxCell id="1" parent="0" />
        <mxCell id="ANb-uEpcqBx3WuXeHWaz-3" style="edgeStyle=orthogonalEdgeStyle;rounded=0;orthogonalLoop=1;jettySize=auto;html=1;fontSize=22;" edge="1" parent="1" source="ANb-uEpcqBx3WuXeHWaz-1" target="ANb-uEpcqBx3WuXeHWaz-2">
          <mxGeometry relative="1" as="geometry" />
        </mxCell>
        <mxCell id="ANb-uEpcqBx3WuXeHWaz-1" value="Inicio" style="ellipse;whiteSpace=wrap;html=1;aspect=fixed;fontSize=22;" vertex="1" parent="1">
          <mxGeometry x="334" y="100" width="80" height="80" as="geometry" />
        </mxCell>
        <mxCell id="ANb-uEpcqBx3WuXeHWaz-2" value="1" style="ellipse;whiteSpace=wrap;html=1;aspect=fixed;fontSize=30;strokeColor=#FF66B3;" vertex="1" parent="1">
          <mxGeometry x="334" y="250" width="80" height="80" as="geometry" />
        </mxCell>
        <mxCell id="ANb-uEpcqBx3WuXeHWaz-4" value="2" style="ellipse;whiteSpace=wrap;html=1;aspect=fixed;fontSize=30;strokeColor=#000000;" vertex="1" parent="1">
          <mxGeometry x="414" y="410" width="80" height="80" as="geometry" />
        </mxCell>
        <mxCell id="ANb-uEpcqBx3WuXeHWaz-6" value="" style="endArrow=classic;html=1;rounded=0;fontSize=22;exitX=0.5;exitY=1;exitDx=0;exitDy=0;strokeColor=#000000;" edge="1" parent="1" source="ANb-uEpcqBx3WuXeHWaz-2" target="ANb-uEpcqBx3WuXeHWaz-4">
          <mxGeometry width="50" height="50" relative="1" as="geometry">
            <mxPoint x="390" y="390" as="sourcePoint" />
            <mxPoint x="440" y="340" as="targetPoint" />
          </mxGeometry>
        </mxCell>
        <mxCell id="ANb-uEpcqBx3WuXeHWaz-7" value="+" style="text;html=1;strokeColor=none;fillColor=none;align=center;verticalAlign=middle;whiteSpace=wrap;rounded=0;fontSize=22;" vertex="1" parent="1">
          <mxGeometry x="390" y="330" width="60" height="30" as="geometry" />
        </mxCell>
        <mxCell id="ANb-uEpcqBx3WuXeHWaz-8" value="4" style="ellipse;whiteSpace=wrap;html=1;aspect=fixed;fontSize=30;strokeColor=#FF66B3;" vertex="1" parent="1">
          <mxGeometry x="110" y="490" width="80" height="80" as="geometry" />
        </mxCell>
        <mxCell id="ANb-uEpcqBx3WuXeHWaz-9" value="" style="endArrow=classic;html=1;rounded=0;fontSize=22;exitX=0.5;exitY=1;exitDx=0;exitDy=0;strokeColor=#FF66B3;" edge="1" parent="1" source="ANb-uEpcqBx3WuXeHWaz-2" target="ANb-uEpcqBx3WuXeHWaz-8">
          <mxGeometry width="50" height="50" relative="1" as="geometry">
            <mxPoint x="384" y="340" as="sourcePoint" />
            <mxPoint x="441.8119921509908" y="426.71798822648634" as="targetPoint" />
          </mxGeometry>
        </mxCell>
        <mxCell id="ANb-uEpcqBx3WuXeHWaz-10" value="-" style="text;html=1;strokeColor=none;fillColor=none;align=center;verticalAlign=middle;whiteSpace=wrap;rounded=0;fontSize=28;" vertex="1" parent="1">
          <mxGeometry x="300" y="330" width="60" height="30" as="geometry" />
        </mxCell>
        <mxCell id="ANb-uEpcqBx3WuXeHWaz-12" value="3" style="ellipse;whiteSpace=wrap;html=1;aspect=fixed;fontSize=30;strokeColor=#000000;" vertex="1" parent="1">
          <mxGeometry x="510" y="560" width="80" height="80" as="geometry" />
        </mxCell>
        <mxCell id="ANb-uEpcqBx3WuXeHWaz-15" value="" style="endArrow=classic;html=1;rounded=0;fontSize=28;exitX=0.425;exitY=1;exitDx=0;exitDy=0;exitPerimeter=0;entryX=0.613;entryY=-0.012;entryDx=0;entryDy=0;entryPerimeter=0;strokeColor=#000000;" edge="1" parent="1" source="ANb-uEpcqBx3WuXeHWaz-12" target="ANb-uEpcqBx3WuXeHWaz-20">
          <mxGeometry width="50" height="50" relative="1" as="geometry">
            <mxPoint x="380" y="680" as="sourcePoint" />
            <mxPoint x="410" y="760" as="targetPoint" />
          </mxGeometry>
        </mxCell>
        <mxCell id="ANb-uEpcqBx3WuXeHWaz-16" value="" style="endArrow=classic;html=1;rounded=0;fontSize=28;entryX=1;entryY=0.5;entryDx=0;entryDy=0;exitX=0;exitY=1;exitDx=0;exitDy=0;strokeColor=#000000;" edge="1" parent="1" source="ANb-uEpcqBx3WuXeHWaz-4" target="ANb-uEpcqBx3WuXeHWaz-8">
          <mxGeometry width="50" height="50" relative="1" as="geometry">
            <mxPoint x="428" y="560" as="sourcePoint" />
            <mxPoint x="230" y="580" as="targetPoint" />
          </mxGeometry>
        </mxCell>
        <mxCell id="ANb-uEpcqBx3WuXeHWaz-18" value="5" style="ellipse;whiteSpace=wrap;html=1;aspect=fixed;fontSize=30;strokeColor=#000000;" vertex="1" parent="1">
          <mxGeometry x="330" y="640" width="80" height="80" as="geometry" />
        </mxCell>
        <mxCell id="ANb-uEpcqBx3WuXeHWaz-20" value="Fin" style="ellipse;whiteSpace=wrap;html=1;aspect=fixed;fontSize=22;strokeColor=#FF66B3;" vertex="1" parent="1">
          <mxGeometry x="340" y="910" width="80" height="80" as="geometry" />
        </mxCell>
        <mxCell id="ANb-uEpcqBx3WuXeHWaz-21" value="+" style="text;html=1;strokeColor=none;fillColor=none;align=center;verticalAlign=middle;whiteSpace=wrap;rounded=0;fontSize=22;" vertex="1" parent="1">
          <mxGeometry x="470" y="480" width="60" height="30" as="geometry" />
        </mxCell>
        <mxCell id="ANb-uEpcqBx3WuXeHWaz-22" value="-" style="text;html=1;strokeColor=none;fillColor=none;align=center;verticalAlign=middle;whiteSpace=wrap;rounded=0;fontSize=28;" vertex="1" parent="1">
          <mxGeometry x="370" y="450" width="60" height="30" as="geometry" />
        </mxCell>
        <mxCell id="ANb-uEpcqBx3WuXeHWaz-25" value="" style="endArrow=classic;html=1;rounded=0;fontSize=28;exitX=1;exitY=1;exitDx=0;exitDy=0;strokeColor=#000000;" edge="1" parent="1" source="ANb-uEpcqBx3WuXeHWaz-8" target="ANb-uEpcqBx3WuXeHWaz-18">
          <mxGeometry width="50" height="50" relative="1" as="geometry">
            <mxPoint x="390" y="670" as="sourcePoint" />
            <mxPoint x="440" y="620" as="targetPoint" />
          </mxGeometry>
        </mxCell>
        <mxCell id="ANb-uEpcqBx3WuXeHWaz-26" value="+" style="text;html=1;strokeColor=none;fillColor=none;align=center;verticalAlign=middle;whiteSpace=wrap;rounded=0;fontSize=22;" vertex="1" parent="1">
          <mxGeometry x="180" y="540" width="60" height="30" as="geometry" />
        </mxCell>
        <mxCell id="ANb-uEpcqBx3WuXeHWaz-27" value="" style="endArrow=classic;html=1;rounded=0;fontSize=28;exitX=0.5;exitY=1;exitDx=0;exitDy=0;strokeColor=#FF66B3;" edge="1" parent="1" source="ANb-uEpcqBx3WuXeHWaz-8" target="ANb-uEpcqBx3WuXeHWaz-20">
          <mxGeometry width="50" height="50" relative="1" as="geometry">
            <mxPoint x="390" y="670" as="sourcePoint" />
            <mxPoint x="440" y="620" as="targetPoint" />
          </mxGeometry>
        </mxCell>
        <mxCell id="ANb-uEpcqBx3WuXeHWaz-28" value="-" style="text;html=1;strokeColor=none;fillColor=none;align=center;verticalAlign=middle;whiteSpace=wrap;rounded=0;fontSize=28;" vertex="1" parent="1">
          <mxGeometry x="110" y="590" width="60" height="30" as="geometry" />
        </mxCell>
        <mxCell id="ANb-uEpcqBx3WuXeHWaz-30" value="" style="endArrow=classic;html=1;rounded=0;fontSize=28;exitX=0.5;exitY=1;exitDx=0;exitDy=0;entryX=0.5;entryY=0;entryDx=0;entryDy=0;strokeColor=#000000;" edge="1" parent="1" source="ANb-uEpcqBx3WuXeHWaz-18" target="ANb-uEpcqBx3WuXeHWaz-20">
          <mxGeometry width="50" height="50" relative="1" as="geometry">
            <mxPoint x="390" y="780" as="sourcePoint" />
            <mxPoint x="440" y="730" as="targetPoint" />
          </mxGeometry>
        </mxCell>
        <mxCell id="ANb-uEpcqBx3WuXeHWaz-31" value="" style="endArrow=classic;html=1;rounded=0;fontSize=28;exitX=0.738;exitY=0.975;exitDx=0;exitDy=0;exitPerimeter=0;strokeColor=#000000;" edge="1" parent="1" source="ANb-uEpcqBx3WuXeHWaz-4" target="ANb-uEpcqBx3WuXeHWaz-12">
          <mxGeometry width="50" height="50" relative="1" as="geometry">
            <mxPoint x="370" y="620" as="sourcePoint" />
            <mxPoint x="420" y="570" as="targetPoint" />
          </mxGeometry>
        </mxCell>
      </root>
    </mxGraphModel>
  </diagram>
</mxfile>
